<mxfile host="app.diagrams.net" modified="2022-12-05T01:42:13.854Z" agent="5.0 (Windows NT 10.0; Win64; x64) AppleWebKit/537.36 (KHTML, like Gecko) Chrome/108.0.0.0 Safari/537.36" etag="tiG317QUjpvzjknLkfy5" version="20.6.0" type="github">
  <diagram id="kgpKYQtTHZ0yAKxKKP6v" name="Page-1">
    <mxGraphModel dx="868" dy="1542" grid="1" gridSize="10" guides="1" tooltips="1" connect="1" arrows="1" fold="1" page="1" pageScale="1" pageWidth="850" pageHeight="1100" math="0" shadow="0">
      <root>
        <mxCell id="0" />
        <mxCell id="1" parent="0" />
        <mxCell id="hJ3lIVfGfD1SlWlnM7AU-1" value="Mian CI" style="whiteSpace=wrap;html=1;aspect=fixed;" vertex="1" parent="1">
          <mxGeometry x="190" y="100" width="80" height="80" as="geometry" />
        </mxCell>
        <mxCell id="hJ3lIVfGfD1SlWlnM7AU-14" value="" style="edgeStyle=orthogonalEdgeStyle;rounded=0;orthogonalLoop=1;jettySize=auto;html=1;" edge="1" parent="1" source="hJ3lIVfGfD1SlWlnM7AU-5" target="hJ3lIVfGfD1SlWlnM7AU-6">
          <mxGeometry relative="1" as="geometry" />
        </mxCell>
        <mxCell id="hJ3lIVfGfD1SlWlnM7AU-5" value="Dev Stage&amp;nbsp;" style="rounded=1;whiteSpace=wrap;html=1;" vertex="1" parent="1">
          <mxGeometry x="320" y="110" width="120" height="60" as="geometry" />
        </mxCell>
        <mxCell id="hJ3lIVfGfD1SlWlnM7AU-16" value="" style="edgeStyle=orthogonalEdgeStyle;rounded=0;orthogonalLoop=1;jettySize=auto;html=1;" edge="1" parent="1" source="hJ3lIVfGfD1SlWlnM7AU-6" target="hJ3lIVfGfD1SlWlnM7AU-15">
          <mxGeometry relative="1" as="geometry" />
        </mxCell>
        <mxCell id="hJ3lIVfGfD1SlWlnM7AU-18" value="" style="edgeStyle=orthogonalEdgeStyle;rounded=0;orthogonalLoop=1;jettySize=auto;html=1;" edge="1" parent="1" source="hJ3lIVfGfD1SlWlnM7AU-6" target="hJ3lIVfGfD1SlWlnM7AU-17">
          <mxGeometry relative="1" as="geometry" />
        </mxCell>
        <mxCell id="hJ3lIVfGfD1SlWlnM7AU-6" value="Is Dev done ?" style="rhombus;whiteSpace=wrap;html=1;" vertex="1" parent="1">
          <mxGeometry x="490" y="100" width="110" height="80" as="geometry" />
        </mxCell>
        <mxCell id="hJ3lIVfGfD1SlWlnM7AU-10" value="Git Commit to Feature&lt;br&gt;" style="ellipse;whiteSpace=wrap;html=1;" vertex="1" parent="1">
          <mxGeometry x="170" y="-20" width="120" height="80" as="geometry" />
        </mxCell>
        <mxCell id="hJ3lIVfGfD1SlWlnM7AU-11" value="" style="endArrow=classic;html=1;rounded=0;exitX=0.5;exitY=1;exitDx=0;exitDy=0;entryX=0.5;entryY=0;entryDx=0;entryDy=0;" edge="1" parent="1" source="hJ3lIVfGfD1SlWlnM7AU-10" target="hJ3lIVfGfD1SlWlnM7AU-1">
          <mxGeometry width="50" height="50" relative="1" as="geometry">
            <mxPoint x="230" y="40" as="sourcePoint" />
            <mxPoint x="250" y="110" as="targetPoint" />
          </mxGeometry>
        </mxCell>
        <mxCell id="hJ3lIVfGfD1SlWlnM7AU-12" value="" style="endArrow=classic;html=1;rounded=0;exitX=0.5;exitY=1;exitDx=0;exitDy=0;" edge="1" parent="1">
          <mxGeometry width="50" height="50" relative="1" as="geometry">
            <mxPoint x="270" y="130" as="sourcePoint" />
            <mxPoint x="320" y="130" as="targetPoint" />
          </mxGeometry>
        </mxCell>
        <mxCell id="hJ3lIVfGfD1SlWlnM7AU-15" value="Stop&lt;br&gt;" style="rounded=1;whiteSpace=wrap;html=1;" vertex="1" parent="1">
          <mxGeometry x="485" y="270" width="120" height="60" as="geometry" />
        </mxCell>
        <mxCell id="hJ3lIVfGfD1SlWlnM7AU-17" value="QA Stage" style="whiteSpace=wrap;html=1;" vertex="1" parent="1">
          <mxGeometry x="675" y="110" width="120" height="60" as="geometry" />
        </mxCell>
        <mxCell id="hJ3lIVfGfD1SlWlnM7AU-20" value="" style="edgeStyle=orthogonalEdgeStyle;rounded=0;orthogonalLoop=1;jettySize=auto;html=1;" edge="1" parent="1" source="hJ3lIVfGfD1SlWlnM7AU-19" target="hJ3lIVfGfD1SlWlnM7AU-17">
          <mxGeometry relative="1" as="geometry" />
        </mxCell>
        <mxCell id="hJ3lIVfGfD1SlWlnM7AU-19" value="Git Commit to integration" style="ellipse;whiteSpace=wrap;html=1;" vertex="1" parent="1">
          <mxGeometry x="660" y="-20" width="120" height="80" as="geometry" />
        </mxCell>
      </root>
    </mxGraphModel>
  </diagram>
</mxfile>
